<?xml version="1.0" encoding="UTF-8"?>
<svg version="1.1" xmlns="http://www.w3.org/2000/svg" width="525" height="220">
<path d="M0 0 C1.81452801 6.64185725 3.31455926 13.06110932 3.7890625 19.94140625 C3.94465793 22.1971045 3.94465793 22.1971045 5 25 C4.2578125 27.0078125 4.2578125 27.0078125 3.125 29.125 C2.75632812 29.82882813 2.38765625 30.53265625 2.0078125 31.2578125 C1 33 1 33 0 34 C-1.66617115 34.04063832 -3.33388095 34.042721 -5 34 C-7.56575664 30.16645772 -7.1922602 26.23614325 -7.0625 21.8125 C-7.00087585 19.20374412 -6.9793521 16.61048428 -7 14 C-7.495 13.505 -7.495 13.505 -8 13 C-9.32 16.63 -10.64 20.26 -12 24 C-10.68 24.66 -9.36 25.32 -8 26 C-7.36230469 28.06298828 -7.36230469 28.06298828 -7.171875 30.5703125 C-7.05585938 31.91416016 -7.05585938 31.91416016 -6.9375 33.28515625 C-6.875625 34.22230469 -6.81375 35.15945312 -6.75 36.125 C-6.63398438 37.54232422 -6.63398438 37.54232422 -6.515625 38.98828125 C-6.32682071 41.32473437 -6.15571258 43.66114637 -6 46 C-5.08992188 45.33484375 -4.17984375 44.6696875 -3.2421875 43.984375 C0.73970493 41.54726494 2.56219894 41.93492774 7 43 C6.8125 45.3125 6.8125 45.3125 6 48 C3.4375 49.6875 3.4375 49.6875 1 51 C1 51.66 1 52.32 1 53 C3.11117525 54.71536998 3.11117525 54.71536998 5.75 56.4375 C8.88882848 58.56217483 11.98767948 60.69853082 15 63 C14.8125 64.875 14.8125 64.875 14 67 C11.84375 68.375 11.84375 68.375 9 69 C5.88671875 67.4453125 5.88671875 67.4453125 2.6875 65.125 C1.08455078 63.98417969 1.08455078 63.98417969 -0.55078125 62.8203125 C-1.35902344 62.21960938 -2.16726562 61.61890625 -3 61 C-3 64.3 -3 67.6 -3 71 C-4.98 71.33 -6.96 71.66 -9 72 C-13.79874878 63.49312716 -14.38343523 54.58920466 -15 45 C-21.14983176 50.76525361 -21.14983176 50.76525361 -24.125 58.375 C-24.3146213 62.09757243 -24.3146213 62.09757243 -22 65 C-22.45283019 71.45283019 -22.45283019 71.45283019 -25 74 C-27.5 74.25 -27.5 74.25 -30 74 C-32.2233881 71.7766119 -32.3605016 71.07694479 -32.8515625 68.0859375 C-33.04492188 66.94511719 -33.04492188 66.94511719 -33.2421875 65.78125 C-33.36851562 64.9871875 -33.49484375 64.193125 -33.625 63.375 C-33.82609375 62.17230469 -33.82609375 62.17230469 -34.03125 60.9453125 C-34.36134789 58.96472516 -34.68161083 56.98250325 -35 55 C-36.62484165 58.24968331 -36.34043966 61.85921167 -36.5 65.4375 C-36.86565197 73.5969559 -36.86565197 73.5969559 -38 77 C-39.485 77.495 -39.485 77.495 -41 78 C-41.99 77.34 -42.98 76.68 -44 76 C-47.02163159 75.46452098 -50.04211987 75.11281379 -53.08984375 74.7578125 C-56.46493666 73.87892924 -57.78589445 72.63558588 -60 70 C-60.99 70.33 -61.98 70.66 -63 71 C-62.95875 72.258125 -62.9175 73.51625 -62.875 74.8125 C-62.7609626 78.29064073 -62.94074319 78.91111478 -65 82 C-67.4375 82.875 -67.4375 82.875 -70 83 C-71.8125 81.9375 -71.8125 81.9375 -73 80 C-73.28600189 76.56797729 -73.09190042 74.27570125 -72 71 C-72.05702974 68.73980671 -72.05702974 68.73980671 -72.375 66.375 C-72.46523437 65.57835937 -72.55546875 64.78171875 -72.6484375 63.9609375 C-72.80681084 62.00278017 -72.80681084 62.00278017 -74 61 C-75.91539047 65.96260257 -77.60961435 70.86626838 -79 76 C-79.66 76 -80.32 76 -81 76 C-81 76.66 -81 77.32 -81 78 C-82.98 78 -84.96 78 -87 78 C-88.80619523 73.53763531 -89.11658501 70.68965706 -88 66 C-88.66 66 -89.32 66 -90 66 C-90.103125 66.86625 -90.20625 67.7325 -90.3125 68.625 C-91.07440041 72.36523839 -92.2251123 76.2251123 -95 79 C-96.99958364 79.04080783 -99.00045254 79.04254356 -101 79 C-103.563035 73.65105738 -104.41348018 68.6440357 -104.8125 62.75 C-104.89165649 61.70392578 -104.89165649 61.70392578 -104.97241211 60.63671875 C-105.1757885 56.87538799 -105.12425941 54.18228822 -103 51 C-100.69 51 -98.38 51 -96 51 C-95.34 52.65 -94.68 54.3 -94 56 C-93.70867187 55.4225 -93.41734375 54.845 -93.1171875 54.25 C-91.8713687 51.99342255 -90.65995096 49.97469491 -89 48 C-85.8125 47.375 -85.8125 47.375 -83 48 C-80.64046906 50.35953094 -80.50858587 51.77895617 -80 55 C-79.401875 54.21625 -78.80375 53.4325 -78.1875 52.625 C-76 50 -76 50 -73 48 C-69.9375 47.75 -69.9375 47.75 -67 48 C-64.215707 50.784293 -64.05089931 53.886863 -63.375 57.625 C-63.17390625 58.68460938 -63.17390625 58.68460938 -62.96875 59.765625 C-62.63889975 61.50911918 -62.31853944 63.25440389 -62 65 C-62 64.01 -62 63.02 -62 62 C-62 61.34 -62 60.68 -62 60 C-61.443125 59.7525 -60.88625 59.505 -60.3125 59.25 C-57.88877333 58.06072607 -57.88877333 58.06072607 -55.8125 56 C-52.08217383 53.34732361 -48.45769133 52.73809268 -44 52 C-44.33 51.34 -44.66 50.68 -45 50 C-46.051875 50.309375 -47.10375 50.61875 -48.1875 50.9375 C-51.12752396 51.75685094 -54.00161623 52.45483931 -57 53 C-59 50 -59 50 -58.875 48 C-57.73834412 45.40192943 -56.39211516 44.47748289 -54 43 C-49.47258828 41.49086276 -44.93573202 41.22570719 -40.5 43 C-40.005 43.33 -39.51 43.66 -39 44 C-38.01 42.68 -37.02 41.36 -36 40 C-33.69 40.33 -31.38 40.66 -29 41 C-28.505 42.98 -28.505 42.98 -28 45 C-27.34 45 -26.68 45 -26 45 C-25.5359375 44.0409375 -25.5359375 44.0409375 -25.0625 43.0625 C-24 41 -24 41 -23 40 C-20.66702567 39.95907063 -18.33294775 39.95758277 -16 40 C-16.08378906 39.37351563 -16.16757813 38.74703125 -16.25390625 38.1015625 C-16.40666016 36.87566406 -16.40666016 36.87566406 -16.5625 35.625 C-16.71912109 34.40683594 -16.71912109 34.40683594 -16.87890625 33.1640625 C-17 31 -17 31 -16 29 C-17.65 29 -19.3 29 -21 29 C-22.99785435 24.8794254 -23.17835515 21.54805635 -23 17 C-23.29132813 17.92683594 -23.58265625 18.85367188 -23.8828125 19.80859375 C-24.29273438 21.00613281 -24.70265625 22.20367187 -25.125 23.4375 C-25.51945312 24.63246094 -25.91390625 25.82742187 -26.3203125 27.05859375 C-28 30 -28 30 -31.1796875 30.91015625 C-32.11039062 30.93980469 -33.04109375 30.96945313 -34 31 C-37.08681896 27.59181359 -37.61608139 24.69535794 -38.1875 20.1875 C-38.34605469 19.00542969 -38.50460938 17.82335937 -38.66796875 16.60546875 C-39.54215423 7.11284289 -39.54215423 7.11284289 -37.8125 3.5625 C-36 2 -36 2 -33.4375 1.625 C-31 2 -31 2 -29 4 C-28.505 5.98 -28.505 5.98 -28 8 C-26.68 5.36 -25.36 2.72 -24 0 C-21.36 0 -18.72 0 -16 0 C-15.01 2.97 -15.01 2.97 -14 6 C-13.2575 5.21625 -12.515 4.4325 -11.75 3.625 C-7.44245693 -0.48674566 -5.76725707 -1.30901559 0 0 Z M-36 51 C-35 54 -35 54 -35 54 Z M-51 61 C-53.00864359 63.3726974 -53.00864359 63.3726974 -54 66 C-52.23863645 68.18331689 -52.23863645 68.18331689 -50.0546875 68.1953125 C-47.02734375 68.09765625 -47.02734375 68.09765625 -44 68 C-44 65.69 -44 63.38 -44 61 C-47.37400578 60.58274322 -47.37400578 60.58274322 -51 61 Z " fill="#020202" transform="translate(207,83)"/>
<path d="M0 0 C2.19477763 -0.00218531 4.38905165 -0.02034232 6.58374023 -0.03930664 C7.97761872 -0.04224091 9.3714996 -0.04422548 10.76538086 -0.04516602 C12.03567139 -0.0492749 13.30596191 -0.05338379 14.61474609 -0.05761719 C17.76928711 0.18530273 17.76928711 0.18530273 20.76928711 2.18530273 C21.1574707 4.0012207 21.1574707 4.0012207 21.16772461 6.17749023 C21.1715918 6.96510742 21.17545898 7.75272461 21.17944336 8.56420898 C21.1678418 9.38791992 21.15624023 10.21163086 21.14428711 11.06030273 C21.15588867 11.8762793 21.16749023 12.69225586 21.17944336 13.53295898 C21.15003083 19.54291974 21.15003083 19.54291974 19.24584961 22.75561523 C18.75858398 23.22741211 18.27131836 23.69920898 17.76928711 24.18530273 C19.39737305 24.22397461 19.39737305 24.22397461 21.05834961 24.26342773 C22.5037006 24.31974011 23.94901155 24.37708673 25.39428711 24.43530273 C26.10713867 24.44948242 26.81999023 24.46366211 27.55444336 24.47827148 C32.67723339 24.71326185 35.66894748 25.87373073 39.76928711 29.18530273 C44.08241369 35.14152515 42.87389044 44.45353064 42.75366211 51.41186523 C42.72891815 53.01063004 42.72891815 53.01063004 42.70367432 54.64169312 C42.66631575 56.88577573 42.6257882 59.12980758 42.58227539 61.3737793 C42.51937171 64.80568714 42.47802222 68.23744471 42.43725586 71.66967773 C42.39821762 73.85459767 42.35789686 76.03949514 42.31616211 78.22436523 C42.30663513 79.24841461 42.29710815 80.27246399 42.28729248 81.32754517 C42.11153694 88.64154363 40.67163688 92.62202267 35.33178711 97.74780273 C34.72077148 98.33819336 34.10975586 98.92858398 33.48022461 99.53686523 C32.91561523 100.08084961 32.35100586 100.62483398 31.76928711 101.18530273 C31.00616211 101.98967773 30.24303711 102.79405273 29.45678711 103.62280273 C27.76928711 105.18530273 27.76928711 105.18530273 25.76928711 105.18530273 C25.76928711 104.52530273 25.76928711 103.86530273 25.76928711 103.18530273 C24.28428711 103.68030273 24.28428711 103.68030273 22.76928711 104.18530273 C20.44452199 104.27029535 18.11731435 104.29249055 15.79101562 104.28295898 C15.08499207 104.28149872 14.37896851 104.28003845 13.65155029 104.27853394 C12.11937829 104.27473019 10.58721068 104.26861597 9.05505562 104.26046753 C6.62995144 104.24770675 4.20490195 104.2411889 1.7797699 104.23632812 C-4.24381323 104.22295398 -10.26734439 104.19875742 -16.29089355 104.17492676 C-21.38017038 104.15519996 -26.46942787 104.1395568 -31.55873299 104.12936401 C-33.94734793 104.12288267 -36.33588334 104.11037382 -38.72447205 104.09765625 C-40.19066295 104.09402316 -41.65685459 104.0906715 -43.12304688 104.08764648 C-44.40195297 104.08240967 -45.68085907 104.07717285 -46.9985199 104.07177734 C-49.63052748 104.16422222 -51.73960397 104.39447296 -54.23071289 105.18530273 C-55.38467 103.77524548 -56.52858755 102.35696815 -57.66821289 100.93530273 C-58.6253418 99.75194336 -58.6253418 99.75194336 -59.60180664 98.54467773 C-62.78910711 93.92806027 -62.42067242 88.95969138 -62.51196289 83.50952148 C-62.53957703 82.24444511 -62.53957703 82.24444511 -62.56774902 80.95381165 C-62.62637692 78.2602115 -62.67921093 75.56654796 -62.73071289 72.87280273 C-62.79875521 69.33492027 -62.87250378 65.79721989 -62.94946289 62.25952148 C-62.96303833 61.45512131 -62.97661377 60.65072113 -62.99060059 59.82194519 C-63.09146933 55.19185737 -63.4788447 50.7562504 -64.23071289 46.18530273 C-63.90071289 46.18530273 -63.57071289 46.18530273 -63.23071289 46.18530273 C-63.06249023 45.25911133 -63.06249023 45.25911133 -62.89086914 44.31420898 C-61.08939681 36.57847485 -57.42810992 32.06901205 -51.23071289 27.18530273 C-49.16311866 25.97013771 -47.12752538 24.96168886 -44.92211914 24.02514648 C-42.99499378 23.21000165 -42.99499378 23.21000165 -41.35571289 20.93530273 C-38.2338055 18.36432018 -35.4053323 18.79102055 -31.47290039 18.84936523 C-29.23071289 19.18530273 -29.23071289 19.18530273 -27.23071289 21.18530273 C-27.23071289 22.50530273 -27.23071289 23.82530273 -27.23071289 25.18530273 C-25.25071289 25.18530273 -23.27071289 25.18530273 -21.23071289 25.18530273 C-21.23071289 24.52530273 -21.23071289 23.86530273 -21.23071289 23.18530273 C-20.57071289 23.18530273 -19.91071289 23.18530273 -19.23071289 23.18530273 C-19.27711914 22.01612305 -19.32352539 20.84694336 -19.37133789 19.64233398 C-19.40886883 18.09418253 -19.44526758 16.54600334 -19.48071289 14.99780273 C-19.51422852 14.22887695 -19.54774414 13.45995117 -19.58227539 12.66772461 C-19.65137328 8.64277266 -19.54826292 6.68721549 -17.34008789 3.19702148 C-12.57370837 -1.34869232 -6.21048551 -0.00069492 0 0 Z M-17.23071289 7.18530273 C-17.47449172 10.54274386 -17.47449172 10.54274386 -17.35571289 14.31030273 C-17.33766602 15.59163086 -17.31961914 16.87295898 -17.30102539 18.19311523 C-17.27782227 19.18053711 -17.25461914 20.16795898 -17.23071289 21.18530273 C-16.57071289 21.51530273 -15.91071289 21.84530273 -15.23071289 22.18530273 C-14.90071289 17.56530273 -14.57071289 12.94530273 -14.23071289 8.18530273 C-4.99071289 8.18530273 4.24928711 8.18530273 13.76928711 8.18530273 C14.09928711 12.14530273 14.42928711 16.10530273 14.76928711 20.18530273 C7.17928711 20.51530273 -0.41071289 20.84530273 -8.23071289 21.18530273 C-8.23071289 21.84530273 -8.23071289 22.50530273 -8.23071289 23.18530273 C-4.62669808 23.27231312 -1.02295277 23.32569661 2.58178711 23.37280273 C3.60594727 23.39793945 4.63010742 23.42307617 5.68530273 23.44897461 C6.66821289 23.45864258 7.65112305 23.46831055 8.66381836 23.47827148 C10.02277222 23.50183716 10.02277222 23.50183716 11.40917969 23.52587891 C13.81797155 23.36824295 13.81797155 23.36824295 15.56567383 21.85864258 C17.46526692 19.21770727 17.12817358 16.81633283 17.08178711 13.62280273 C17.07598633 11.88836914 17.07598633 11.88836914 17.07006836 10.11889648 C17.06874588 7.06389644 17.06874588 7.06389644 14.76928711 5.18530273 C11.69282971 4.87295381 11.69282971 4.87295381 8.08178711 4.91967773 C7.423479 4.91776428 6.7651709 4.91585083 6.08691406 4.91387939 C4.69490171 4.91251824 3.30287664 4.9162099 1.91088867 4.92456055 C-0.22253878 4.93526173 -2.3551242 4.92466367 -4.48852539 4.91186523 C-5.84008975 4.91318684 -7.19165359 4.91574926 -8.54321289 4.91967773 C-10.39366211 4.92306152 -10.39366211 4.92306152 -12.28149414 4.92651367 C-15.35140867 4.87760507 -15.35140867 4.87760507 -17.23071289 7.18530273 Z M-12.23071289 21.18530273 C-12.23071289 21.84530273 -12.23071289 22.50530273 -12.23071289 23.18530273 C-11.57071289 23.18530273 -10.91071289 23.18530273 -10.23071289 23.18530273 C-10.23071289 22.52530273 -10.23071289 21.86530273 -10.23071289 21.18530273 C-10.89071289 21.18530273 -11.55071289 21.18530273 -12.23071289 21.18530273 Z M-42.23071289 26.18530273 C-42.23071289 27.83530273 -42.23071289 29.48530273 -42.23071289 31.18530273 C-38.93071289 31.18530273 -35.63071289 31.18530273 -32.23071289 31.18530273 C-32.56071289 30.52530273 -32.89071289 29.86530273 -33.23071289 29.18530273 C-32.90691163 27.84962252 -32.57413738 26.51607263 -32.23071289 25.18530273 C-33.40107594 23.79242468 -33.40107594 23.79242468 -36.66821289 23.99780273 C-40.2810401 23.78965345 -40.2810401 23.78965345 -42.23071289 26.18530273 Z M-5.23071289 25.18530273 C-5.23071289 27.16530273 -5.23071289 29.14530273 -5.23071289 31.18530273 C-1.93071289 31.18530273 1.36928711 31.18530273 4.76928711 31.18530273 C4.76928711 29.20530273 4.76928711 27.22530273 4.76928711 25.18530273 C1.46928711 25.18530273 -1.83071289 25.18530273 -5.23071289 25.18530273 Z M-56.66821289 35.96655273 C-58.77043239 38.95170443 -58.95440433 41.59329141 -59.23071289 45.18530273 C-58.57071289 45.18530273 -57.91071289 45.18530273 -57.23071289 45.18530273 C-56.57071289 46.50530273 -55.91071289 47.82530273 -55.23071289 49.18530273 C-54.90071289 48.52530273 -54.57071289 47.86530273 -54.23071289 47.18530273 C-55.12234866 45.06846432 -55.12234866 45.06846432 -56.23071289 43.18530273 C-55.57071289 43.18530273 -54.91071289 43.18530273 -54.23071289 43.18530273 C-54.03735352 42.54077148 -53.84399414 41.89624023 -53.64477539 41.23217773 C-52.23071289 39.18530273 -52.23071289 39.18530273 -49.19165039 38.57592773 C-48.00829102 38.52952148 -46.82493164 38.48311523 -45.60571289 38.43530273 C-44.41719727 38.37858398 -43.22868164 38.32186523 -42.00415039 38.26342773 C-41.08891602 38.23764648 -40.17368164 38.21186523 -39.23071289 38.18530273 C-39.23071289 36.86530273 -39.23071289 35.54530273 -39.23071289 34.18530273 C-41.64858409 34.07703984 -44.06158845 33.99790485 -46.48071289 33.93530273 C-47.16262695 33.90178711 -47.84454102 33.86827148 -48.54711914 33.83374023 C-51.97380485 33.76720265 -53.86775487 33.92006418 -56.66821289 35.96655273 Z M-33.23071289 34.18530273 C-34.87254011 38.07096049 -35.57726271 41.27464167 -35.85571289 45.49780273 C-35.97946289 47.37467773 -36.10321289 49.25155273 -36.23071289 51.18530273 C-44.64571289 51.68030273 -44.64571289 51.68030273 -53.23071289 52.18530273 C-53.56071289 51.52530273 -53.89071289 50.86530273 -54.23071289 50.18530273 C-56.75804524 49.52975154 -56.75804524 49.52975154 -59.23071289 49.18530273 C-59.33211782 55.66303134 -59.40218006 62.14055534 -59.45043945 68.61889648 C-59.47055708 70.82275034 -59.49785461 73.0265508 -59.5324707 75.23022461 C-59.58098122 78.3976763 -59.60368025 81.56442241 -59.62133789 84.73217773 C-59.64198303 85.71772644 -59.66262817 86.70327515 -59.68389893 87.71868896 C-59.75876501 93.11521663 -59.75876501 93.11521663 -57.36743164 97.80053711 C-54.79332982 99.46876214 -53.03084429 99.7747695 -49.98071289 99.93530273 C-49.08868164 99.99202148 -48.19665039 100.04874023 -47.27758789 100.10717773 C-46.60211914 100.13295898 -45.92665039 100.15874023 -45.23071289 100.18530273 C-45.23071289 99.52530273 -45.23071289 98.86530273 -45.23071289 98.18530273 C-43.91071289 98.51530273 -42.59071289 98.84530273 -41.23071289 99.18530273 C-41.23071289 99.51530273 -41.23071289 99.84530273 -41.23071289 100.18530273 C-32.32065403 100.27804848 -23.41076174 100.3490906 -14.5003252 100.39255142 C-10.36267337 100.41341222 -6.22535217 100.44170171 -2.08789062 100.48706055 C1.90622004 100.53057302 5.900013 100.55445119 9.89434242 100.56481171 C11.4169852 100.57219347 12.9396109 100.58660859 14.46211815 100.60822296 C16.59768399 100.63733051 18.73194298 100.64125593 20.86767578 100.6394043 C22.08235031 100.64828674 23.29702484 100.65716919 24.54850769 100.6663208 C28.41145136 100.08939657 30.04818414 98.94211766 32.76928711 96.18530273 C33.76031824 93.21220933 33.91857916 91.18132619 33.9621582 88.07470703 C33.98625259 86.51244637 33.98625259 86.51244637 34.01083374 84.91862488 C34.05534325 80.16060077 34.0963397 75.40271484 34.11938477 70.64453125 C34.13595149 68.13532237 34.16325052 65.62616081 34.20141602 63.1171875 C34.25618072 59.49771667 34.27805843 55.87935083 34.29272461 52.25952148 C34.32672867 50.58112434 34.32672867 50.58112434 34.36141968 48.86882019 C34.38788914 42.39884997 34.38788914 42.39884997 32.11474609 36.46728516 C28.46494378 32.96019524 23.5187291 33.50378209 18.74992371 33.50552368 C17.40610289 33.53615876 16.06229699 33.56745466 14.71850586 33.59936523 C13.33561548 33.61056466 11.9527012 33.61910133 10.56977844 33.62509155 C6.94088286 33.64793265 3.31344262 33.70681032 -0.31488037 33.77331543 C-4.02165032 33.8348428 -7.72865693 33.86212856 -11.43579102 33.89233398 C-18.70142639 33.95656229 -25.96586525 34.05887945 -33.23071289 34.18530273 Z M-37.23071289 35.18530273 C-37.23071289 35.84530273 -37.23071289 36.50530273 -37.23071289 37.18530273 C-36.57071289 37.18530273 -35.91071289 37.18530273 -35.23071289 37.18530273 C-35.23071289 36.52530273 -35.23071289 35.86530273 -35.23071289 35.18530273 C-35.89071289 35.18530273 -36.55071289 35.18530273 -37.23071289 35.18530273 Z M-49.23071289 43.18530273 C-48.90071289 44.83530273 -48.57071289 46.48530273 -48.23071289 48.18530273 C-45.59071289 48.18530273 -42.95071289 48.18530273 -40.23071289 48.18530273 C-39.90071289 46.53530273 -39.57071289 44.88530273 -39.23071289 43.18530273 C-42.53071289 43.18530273 -45.83071289 43.18530273 -49.23071289 43.18530273 Z " fill="#020202" transform="translate(368.230712890625,58.814697265625)"/>
<path d="M0 0 C-0.33 3.96 -0.66 7.92 -1 12 C-0.34 12 0.32 12 1 12 C0.505 9.03 0.505 9.03 0 6 C8.62691131 -1 8.62691131 -1 13 -1 C18.19811913 0.29952978 21.45406456 3.68109684 24.375 8.0625 C25.19014003 10.58943408 24.97633595 11.52126582 24 14 C21.71484375 16.32421875 21.71484375 16.32421875 18.9375 18.6875 C17.27819525 20.10942875 15.62851403 21.5429085 14 23 C14 23.33 14 23.66 14 24 C17.85645121 24.22036864 20.49223216 23.60355101 24 22 C25.125 24.3125 25.125 24.3125 26 27 C24 30 24 30 21 31 C16.05965193 31.46650346 11.57820222 31.77231173 7.0625 29.5625 C4.21965242 26.03047724 2.61164403 22.21368382 1 18 C-0.20220203 21.53094302 0.20467651 24.12898982 0.9375 27.75 C1.13214844 28.73484375 1.32679688 29.7196875 1.52734375 30.734375 C1.68332031 31.48203125 1.83929688 32.2296875 2 33 C2.66 33 3.32 33 4 33 C3.67 38.61 3.34 44.22 3 50 C3.66 49.67 4.32 49.34 5 49 C7.6723621 48.86584528 10.32250488 48.95681459 13 49 C13.1875 51.375 13.1875 51.375 13 54 C9.71536341 56.18975773 6.79303725 56.99806563 3 58 C4.12550232 64.86077477 5.29498197 71.70440805 6.6328125 78.52734375 C7.01362027 81.0917195 7.20133979 83.41322142 7 86 C6.34 86.66 5.68 87.32 5 88 C2.375 87.625 2.375 87.625 0 87 C-0.50588147 85.08487728 -1.00448391 83.16783078 -1.5 81.25 C-1.7784375 80.18265625 -2.056875 79.1153125 -2.34375 78.015625 C-3 75 -3 75 -3 71 C-3.66 71 -4.32 71 -5 71 C-6.125 65.25 -6.125 65.25 -5 63 C-5 61.68 -5 60.36 -5 59 C-5.70125 59.350625 -6.4025 59.70125 -7.125 60.0625 C-10 61 -10 61 -12.75 60.125 C-16.91675167 59.96474032 -17.7441566 61.10399402 -20.8125 63.8125 C-23.81465823 66.60312564 -23.81465823 66.60312564 -26 70 C-23.05091665 69.51991666 -20.15006523 69.03751631 -17.25 68.3125 C-16.5075 68.209375 -15.765 68.10625 -15 68 C-14.01 68.99 -14.01 68.99 -13 70 C-13.0625 71.9375 -13.0625 71.9375 -14 74 C-17.47534343 76.68097922 -20.61173861 77.91395566 -25 78 C-29.37161554 76.64708223 -32.34485457 74.74134878 -35.375 71.3125 C-38.64303222 64.65074201 -39.92943216 58.23537061 -38 51 C-35.34909645 47.81891574 -33.83979305 46.37124395 -29.8125 45.55859375 C-24.42826683 45.27664911 -21.1724203 46.42363975 -17 50 C-15.125 52.25 -15.125 52.25 -14 54 C-10.48797488 52.79271391 -10.48797488 52.79271391 -7 51 C-6.22806288 48.95702552 -6.22806288 48.95702552 -6 47 C-6.60328125 46.84144531 -7.2065625 46.68289062 -7.828125 46.51953125 C-13.02442785 45.00254606 -16.0177437 43.79754274 -19 39 C-18.34 37.68 -17.68 36.36 -17 35 C-12.48521602 35.53115106 -9.65333143 37.36620292 -6 40 C-5.60674181 33.02330843 -6.36903961 27.48343811 -9 21 C-10.546875 21.2475 -10.546875 21.2475 -12.125 21.5 C-16 22 -16 22 -22 22 C-22.66 27.28 -23.32 32.56 -24 38 C-26.475 38.495 -26.475 38.495 -29 39 C-29.66 38.34 -30.32 37.68 -31 37 C-32.95549256 36.87742539 -34.91570618 36.82447612 -36.875 36.8125 C-42.45584858 36.42391751 -42.45584858 36.42391751 -44.71484375 34.6640625 C-47.0590954 30.97666311 -47.63194381 27.19932296 -46.79296875 22.9296875 C-45.23199907 19.13107163 -42.58261149 16.89357182 -39 15 C-35.9832607 14.27808616 -33.09748033 14.01404753 -30 14 C-30 13.01 -30 12.02 -30 11 C-30.61488281 11.20496094 -31.22976562 11.40992187 -31.86328125 11.62109375 C-35.2421875 12.74739583 -38.62109375 13.87369792 -42 15 C-43.5625 13.8125 -43.5625 13.8125 -45 12 C-45.25 9.5625 -45.25 9.5625 -44 7 C-39.92752028 4.2359127 -36.1597409 3.01932901 -31.25 2.9375 C-27.39167607 4.19887513 -25.59747899 5.93025211 -23 9 C-22.59910156 8.45730469 -22.19820312 7.91460937 -21.78515625 7.35546875 C-16.11841989 0.22386176 -8.97375372 -4.48687686 0 0 Z M-13.125 6.125 C-15.30208333 7.92708333 -15.30208333 7.92708333 -15.4375 11.0625 C-15.293125 12.031875 -15.14875 13.00125 -15 14 C-13.515 14.99 -13.515 14.99 -12 16 C-9.29417212 12.16674383 -8.67386382 9.67461851 -9 5 C-11.1061412 4.84403743 -11.1061412 4.84403743 -13.125 6.125 Z M8 10 C8.32041397 12.60280568 8.32041397 12.60280568 9 15 C12.93075644 14.42547254 12.93075644 14.42547254 16 12 C15.6814823 9.89179203 15.6814823 9.89179203 15 8 C11.04542152 7.65176193 11.04542152 7.65176193 8 10 Z M-23 14 C-23 15.65 -23 17.3 -23 19 C-22.34 18.67 -21.68 18.34 -21 18 C-21.66 16.68 -22.32 15.36 -23 14 Z M-1 14 C0 16 0 16 0 16 Z M-32 21 C-31.01 22.485 -31.01 22.485 -30 24 C-30 23.01 -30 22.02 -30 21 C-30.66 21 -31.32 21 -32 21 Z M-35 22 C-37.475 23.485 -37.475 23.485 -40 25 C-39.67 26.32 -39.34 27.64 -39 29 C-37.35 28.67 -35.7 28.34 -34 28 C-34.33 28.66 -34.66 29.32 -35 30 C-33.68 30 -32.36 30 -31 30 C-30.66574265 27.62625139 -30.66574265 27.62625139 -31 25 C-32.9004467 23.15684329 -32.9004467 23.15684329 -35 22 Z M-29 53 C-31.28728734 54.83883881 -31.28728734 54.83883881 -31.125 57.625 C-31.08375 58.40875 -31.0425 59.1925 -31 60 C-30.01 60.33 -29.02 60.66 -28 61 C-26.29115995 59.37660195 -24.62553283 57.70680947 -23 56 C-23 55.34 -23 54.68 -23 54 C-25.90073181 53.32198966 -25.90073181 53.32198966 -29 53 Z " fill="#020202" transform="translate(259,73)"/>
<path d="M0 0 C5.94827174 4.66531117 9.47077689 10.03964836 10.49609375 17.56640625 C11.03112654 26.24881088 9.76740391 32.99752218 3.98046875 39.78125 C-0.96099956 44.85627151 -7.8115918 47.96595222 -14.89453125 48.28125 C-20.66946512 48.06332797 -25.75178878 46.02454717 -31.01953125 43.78125 C-31.01953125 43.12125 -31.01953125 42.46125 -31.01953125 41.78125 C-32.99953125 42.27625 -32.99953125 42.27625 -35.01953125 42.78125 C-36.00953125 41.46125 -36.99953125 40.14125 -38.01953125 38.78125 C-37.35953125 38.78125 -36.69953125 38.78125 -36.01953125 38.78125 C-36.36886719 38.1521875 -36.71820313 37.523125 -37.078125 36.875 C-41.2122709 29.09858959 -43.16967794 22.83613615 -40.859375 14.078125 C-38.02723933 6.33256325 -33.57324 1.90658199 -26.484375 -2.125 C-17.93267098 -5.91973396 -7.94485126 -4.79457175 0 0 Z M-33.33203125 6.03125 C-37.48142538 11.33388174 -39.61046657 17.0025074 -39.3046875 23.76953125 C-38.38325522 30.27004662 -35.94119173 34.52467878 -31.01953125 38.78125 C-30.35953125 38.12125 -29.69953125 37.46125 -29.01953125 36.78125 C-29.82390625 35.87375 -30.62828125 34.96625 -31.45703125 34.03125 C-35.3693734 29.61732553 -35.31859441 25.00620567 -35.2265625 19.30859375 C-34.7777227 13.82936068 -32.71505721 10.14828545 -28.76953125 6.46875 C-22.6784745 1.72280161 -17.0960968 1.57321783 -9.66796875 2.296875 C-6.91406714 2.80053842 -4.57607875 3.65526157 -2.01953125 4.78125 C-2.01953125 5.44125 -2.01953125 6.10125 -2.01953125 6.78125 C-1.35953125 6.78125 -0.69953125 6.78125 -0.01953125 6.78125 C0.64713542 8.11458333 1.31380208 9.44791667 1.98046875 10.78125 C2.32464844 11.3484375 2.66882813 11.915625 3.0234375 12.5 C5.37179259 18.09771172 4.96243159 25.56619399 3.2109375 31.30078125 C0.08529003 37.07715449 -4.99281512 39.6393811 -11.01953125 41.78125 C-14.33354019 42.64244144 -17.63053482 43.29813774 -21.01953125 43.78125 C-21.01953125 43.12125 -21.01953125 42.46125 -21.01953125 41.78125 C-22.50453125 41.28625 -22.50453125 41.28625 -24.01953125 40.78125 C-24.34953125 41.77125 -24.67953125 42.76125 -25.01953125 43.78125 C-18.72071985 45.8808538 -10.69707468 45.99185109 -4.58203125 43.21875 C1.38302259 39.63216699 5.39048769 34.41414 7.5078125 27.80859375 C9.21273967 20.49572433 7.7289113 14.20267665 3.98046875 7.78125 C-0.50945447 2.69142055 -5.19880497 -0.79802982 -12.0703125 -1.5546875 C-21.09986327 -1.66282583 -27.04116009 -0.67389804 -33.33203125 6.03125 Z M-26.76953125 13.40625 C-28.70141345 17.07682619 -29.12715713 20.65559144 -29.01953125 24.78125 C-27.74470529 28.75570739 -26.42482084 30.43122717 -23.26953125 33.15625 C-19.55813788 35.01194669 -17.11506907 35.10889303 -13.01953125 34.78125 C-13.01953125 34.12125 -13.01953125 33.46125 -13.01953125 32.78125 C-11.36953125 33.11125 -9.71953125 33.44125 -8.01953125 33.78125 C-7.40078125 32.853125 -6.78203125 31.925 -6.14453125 30.96875 C-4.76953125 28.90625 -3.39453125 26.84375 -2.01953125 24.78125 C-1.54359078 20.57710919 -1.74421911 18.31148079 -3.70703125 14.53125 C-6.58085309 11.11373214 -8.62321498 9.09552099 -13.1640625 8.5 C-19.04648915 8.26587357 -22.40488245 9.35336183 -26.76953125 13.40625 Z M-29.01953125 39.78125 C-28.35953125 40.44125 -27.69953125 41.10125 -27.01953125 41.78125 C-27.01953125 41.12125 -27.01953125 40.46125 -27.01953125 39.78125 C-27.67953125 39.78125 -28.33953125 39.78125 -29.01953125 39.78125 Z " fill="#020202" transform="translate(371.01953125,104.21875)"/>
<path d="M0 0 C3.625 0.375 3.625 0.375 7 1 C7.28875 1.94875 7.5775 2.8975 7.875 3.875 C8.76825109 7.05211578 8.76825109 7.05211578 11 9 C10.01 9.33 9.02 9.66 8 10 C7.76116094 18.73089453 8.19849691 26.64851387 9.7578125 35.234375 C9.83773437 36.14703125 9.91765625 37.0596875 10 38 C9.34 38.66 8.68 39.32 8 40 C2.54545455 39.54545455 2.54545455 39.54545455 0 37 C-0.48657227 35.0480957 -0.48657227 35.0480957 -0.81640625 32.67578125 C-1.00299805 31.37930664 -1.00299805 31.37930664 -1.19335938 30.05664062 C-1.31517578 29.15107422 -1.43699219 28.24550781 -1.5625 27.3125 C-1.68818359 26.42626953 -1.81386719 25.54003906 -1.94335938 24.62695312 C-2.18940776 22.88657944 -2.4301691 21.14544898 -2.6652832 19.40356445 C-2.95740771 17.30585055 -3.29516806 15.21459323 -3.640625 13.125 C-4.13689494 8.80960922 -3.32530372 6.11541681 -2 2 C-1.34 1.34 -0.68 0.68 0 0 Z " fill="#020202" transform="translate(159,75)"/>
<path d="M0 0 C1.79244141 0.01740234 1.79244141 0.01740234 3.62109375 0.03515625 C5.41740234 0.04869141 5.41740234 0.04869141 7.25 0.0625 C8.17683594 0.07410156 9.10367187 0.08570312 10.05859375 0.09765625 C13.05859375 6.72265625 13.05859375 6.72265625 13.05859375 10.09765625 C7.44859375 10.09765625 1.83859375 10.09765625 -3.94140625 10.09765625 C-4.0390625 3.1640625 -4.0390625 3.1640625 -3.94140625 1.09765625 C-2.94140625 0.09765625 -2.94140625 0.09765625 0 0 Z " fill="#010101" transform="translate(384.94140625,98.90234375)"/>
<path d="M0 0 C6.6 0 13.2 0 20 0 C16.63385703 2.24409531 14.97044339 2.36225007 11 2.625 C9.948125 2.69976562 8.89625 2.77453125 7.8125 2.8515625 C5.87706201 2.95371062 3.93813169 3 2 3 C1.34 2.01 0.68 1.02 0 0 Z " fill="#0E0E0E" transform="translate(357,82)"/>
<path d="M0 0 C1.65 0.33 3.3 0.66 5 1 C5 1.99 5 2.98 5 4 C3.68 4.33 2.36 4.66 1 5 C0.87625 5.61875 0.7525 6.2375 0.625 6.875 C0 9 0 9 -2 11 C-2.99 10.67 -3.98 10.34 -5 10 C-4.6390625 9.52949219 -4.278125 9.05898437 -3.90625 8.57421875 C-3.4421875 7.95160156 -2.978125 7.32898438 -2.5 6.6875 C-2.0359375 6.07261719 -1.571875 5.45773438 -1.09375 4.82421875 C0.25711283 2.92566995 0.25711283 2.92566995 0 0 Z " fill="#0A0A0A" transform="translate(369,128)"/>
<path d="M0 0 C-0.6875 1.875 -0.6875 1.875 -2 4 C-3.2684375 4.495 -3.2684375 4.495 -4.5625 5 C-5.7690625 5.495 -5.7690625 5.495 -7 6 C-7.88693303 8.04105639 -7.88693303 8.04105639 -8 10 C-9 9 -9 9 -9.4375 6.6875 C-9 4 -9 4 -6.1875 1.6875 C-3 0 -3 0 0 0 Z " fill="#0B0B0B" transform="translate(158,138)"/>
<path d="M0 0 C0.99 0.33 1.98 0.66 3 1 C3.33 1.99 3.66 2.98 4 4 C3.67 4.66 3.34 5.32 3 6 C1.35 5.67 -0.3 5.34 -2 5 C-1.125 1.125 -1.125 1.125 0 0 Z " fill="#030303" transform="translate(359,116)"/>
<path d="M0 0 C2.4375 0.375 2.4375 0.375 5 1 C5.33 1.66 5.66 2.32 6 3 C5.34 3 4.68 3 4 3 C4 3.99 4 4.98 4 6 C3.01 6 2.02 6 1 6 C0.67 4.02 0.34 2.04 0 0 Z " fill="#0B0B0B" transform="translate(354,140)"/>
<path d="M0 0 C0.99 0.33 1.98 0.66 3 1 C1.8125 2.5625 1.8125 2.5625 0 4 C-2.6875 3.6875 -2.6875 3.6875 -5 3 C-2 1 -2 1 0 0 Z " fill="#0B0B0B" transform="translate(124,155)"/>
<path d="M0 0 C0.66 0.33 1.32 0.66 2 1 C2 3.31 2 5.62 2 8 C1.34 8 0.68 8 0 8 C-0.79953138 4.71303767 -1.09658936 3.28976808 0 0 Z " fill="#080809" transform="translate(330,122)"/>
<path d="M0 0 C0.66 0.66 1.32 1.32 2 2 C1.01 3.485 1.01 3.485 0 5 C-0.99 5 -1.98 5 -3 5 C-1.125 1.125 -1.125 1.125 0 0 Z " fill="#0B0B0B" transform="translate(406,97)"/>
<path d="M0 0 C0.66 0.66 1.32 1.32 2 2 C1.01 1.67 0.02 1.34 -1 1 C-0.67 0.67 -0.34 0.34 0 0 Z " fill="#000000" transform="translate(320,94)"/>
<path d="M0 0 C2 1 2 1 2 1 Z " fill="#000000" transform="translate(156,145)"/>
<path d="M0 0 C2 1 2 1 2 1 Z " fill="#000000" transform="translate(364,132)"/>
<path d="" fill="#000000" transform="translate(0,0)"/>
<path d="" fill="#000000" transform="translate(0,0)"/>
<path d="" fill="#000000" transform="translate(0,0)"/>
<path d="" fill="#000000" transform="translate(0,0)"/>
<path d="" fill="#000000" transform="translate(0,0)"/>
<path d="" fill="#000000" transform="translate(0,0)"/>
<path d="" fill="#000000" transform="translate(0,0)"/>
<path d="" fill="#000000" transform="translate(0,0)"/>
</svg>
